<svg width="16" height="20" viewBox="0 0 16 20" fill="none" xmlns="http://www.w3.org/2000/svg">
<path fill-rule="evenodd" clip-rule="evenodd" d="M8.25026 10.1089C10.9733 10.1089 13.1893 7.89393 13.1893 5.17093C13.1893 2.44693 10.9733 0.231934 8.25026 0.231934C5.52726 0.231934 3.31226 2.44693 3.31226 5.17093C3.31226 7.89393 5.52726 10.1089 8.25026 10.1089Z" fill="black"/>
<path opacity="0.4" fill-rule="evenodd" clip-rule="evenodd" d="M15.7695 17.3911C14.7535 14.1781 12.0235 12.3371 8.27655 12.3371H8.24955C4.49255 12.3161 1.74855 14.1701 0.730549 17.3911L0.612549 17.7651L0.946549 17.9691C2.90455 19.1631 5.34655 19.7681 8.20255 19.7681C8.23455 19.7681 8.26655 19.7681 8.29755 19.7681C11.1935 19.7681 13.5675 19.1791 15.5535 17.9691L15.8875 17.7651L15.7695 17.3911Z" fill="black"/>
</svg>
